# xmcd
#
# Track frame offsets:
#	190
#	9387
#	19150
#	30212
#	42110
#	50340
#	60485
#	68700
#	77037
#	88640
#	97415
#	108772
#	118472
#	129407
#
# Disc length: 1859 seconds
# Revision: 5
# Processed by: cddbd v1.5.2PL0 Copyright (c) Steve Scherf et al.
# Submitted via: dBpowerAMP V12.0
#
DISCID=ac07410e
DTITLE=Buck Owens And His Buckaroos - The Instrumental Hits Of... [Sundazed SC 6049]
DYEAR=1995
DGENRE=Country
TTITLE0=Buckaroo
TTITLE1=Orange Blossom Special
TTITLE2=Raz-Ma-Taz Polka
TTITLE3=Faded Love
TTITLE4=Bud's Bounce
TTITLE5=Country Polka
TTITLE6=Bile 'Em Cabbage Down
TTITLE7=Steel Guitar Rag
TTITLE8=A Maiden's Prayer
TTITLE9=Buck's Polka
TTITLE10=Country Rag
TTITLE11=Mexican Polka
TTITLE12=Act Naturally (Instrumental Version)*
TTITLE13=I've Got A Tiger By The Tail (Instrumental Version)*
EXTD=
EXTT0=
EXTT1=
EXTT2=
EXTT3=
EXTT4=
EXTT5=
EXTT6=
EXTT7=
EXTT8=
EXTT9=
EXTT10=
EXTT11=
EXTT12=
EXTT13=
PLAYORDER=
